<svg xmlns="http://www.w3.org/2000/svg" width="1792" height="1792" viewBox="0 0 1792 1792"><path fill="#fff" d="m 1117.6667,915.11111 q 0,161.77779 -67.6667,288.16669 -67.66667,126.3889 -192.88889,197.5555 -125.22222,71.1667 -287,71.1667 -115.88889,0 -221.66667,-45.1111 -105.77777,-45.1111 -182,-121.3333 -76.22222,-76.2223 -121.33333,-182 Q 0,1017.7778 0,901.88891 0,786.00001 45.11111,680.22223 q 45.11111,-105.77778 121.33333,-182 76.22223,-76.22222 182,-121.33333 105.77778,-45.11111 221.66667,-45.11111 222.44445,0 381.88889,149.33333 L 797.22222,629.66668 q -91,-87.88889 -227.11111,-87.88889 -95.66667,0 -176.94444,48.22222 Q 311.88889,638.22223 264.44444,721.05557 217,803.8889 217,901.88891 q 0,98 47.44444,180.83329 47.44445,82.8334 128.72223,131.0556 Q 474.44444,1262 570.11111,1262 q 64.55556,0 118.61111,-17.8889 54.05556,-17.8889 89.05556,-44.7222 35,-26.8333 61.05555,-61.0556 26.05556,-34.2222 38.11111,-64.5555 12.05556,-30.3334 16.72223,-57.5556 l -323.55556,0 0,-195.99997 538.22219,0 q 9.3334,48.99998 9.3334,94.88888 z M 1792,820.22223 l 0,163.33338 -162.5556,0 0,162.55549 -163.3333,0 0,-162.55549 -162.5555,0 0,-163.33338 162.5555,0 0,-162.55555 163.3333,0 0,162.55555 162.5556,0 z"/></svg>